<svg width="50" height="50" viewBox="0 0 50 50" fill="none" xmlns="http://www.w3.org/2000/svg">
<rect width="50" height="50" rx="15" fill="url(#paint0_linear_1_1207)"/>
<path d="M38.4238 18.2083L34.459 34.9563H32.2441L31.7383 32.1672L35.9629 15.05H38.3418L38.4238 18.2083ZM40.4609 34.9563L37.1797 18.2083L37.4531 15.05H40.1055L44.5215 34.9563H40.4609ZM28.252 18.2766L25.0117 34.9563H20.9512L25.3535 15.05H28.0059L28.252 18.2766ZM31 34.9563L27.0078 18.1399L27.1172 15.05H29.4961L33.748 32.1809L33.2012 34.9563H31Z" fill="#D9DBDE"/>
<path d="M11.5762 31.8418L15.541 15.0938H17.7559L18.2617 17.8828L14.0371 35H11.6582L11.5762 31.8418ZM9.53906 15.0938L12.8203 31.8418L12.5469 35H9.89453L5.47852 15.0938H9.53906ZM21.748 31.7734L24.9883 15.0938H29.0488L24.6465 35H21.9941L21.748 31.7734ZM19 15.0938L22.9922 31.9102L22.8828 35H20.5039L16.252 17.8691L16.7988 15.0938H19Z" fill="#D9DBDE"/>
<defs>
<linearGradient id="paint0_linear_1_1207" x1="25" y1="0" x2="25" y2="50" gradientUnits="userSpaceOnUse">
<stop stop-color="#202225"/>
<stop offset="0.0001" stop-color="#202225"/>
<stop offset="1" stop-color="#0F0F0F"/>
</linearGradient>
</defs>
</svg>
