<svg width="50" height="50" viewBox="0 0 50 50" fill="none" xmlns="http://www.w3.org/2000/svg">
<rect width="50" height="50" rx="15" fill="url(#paint0_linear_1_1207)"/>
<path d="M21.9238 18.2083L17.959 34.9563H15.7441L15.2383 32.1672L19.4629 15.05H21.8418L21.9238 18.2083ZM23.9609 34.9563L20.6797 18.2083L20.9531 15.05H23.6055L28.0215 34.9563H23.9609ZM11.752 18.2766L8.51172 34.9563H4.45117L8.85352 15.05H11.5059L11.752 18.2766ZM14.5 34.9563L10.5078 18.1399L10.6172 15.05H12.9961L17.248 32.1809L16.7012 34.9563H14.5Z" fill="#D9DBDE"/>
<path d="M27.0762 31.7917L31.041 15.0437H33.2559L33.7617 17.8328L29.5371 34.95H27.1582L27.0762 31.7917ZM25.0391 15.0437L28.3203 31.7917L28.0469 34.95H25.3945L20.9785 15.0437H25.0391ZM37.248 31.7234L40.4883 15.0437H44.5488L40.1465 34.95H37.4941L37.248 31.7234ZM34.5 15.0437L38.4922 31.8601L38.3828 34.95H36.0039L31.752 17.8191L32.2988 15.0437H34.5Z" fill="#D9DBDE"/>
<defs>
<linearGradient id="paint0_linear_1_1207" x1="25" y1="0" x2="25" y2="50" gradientUnits="userSpaceOnUse">
<stop stop-color="#202225"/>
<stop offset="0.0001" stop-color="#202225"/>
<stop offset="1" stop-color="#0F0F0F"/>
</linearGradient>
</defs>
</svg>
