<svg xmlns="http://www.w3.org/2000/svg" width="55" height="66" viewBox="0 0 55 66" fill="none">
	<path d="M46.4901 31.8386L46.6968 31.8383L46.843 31.6922L52.7359 25.8006L53.5897 24.947H52.3824H35.0386V3V1.79273L34.185 2.64648L5.87542 30.9615L5.02206 31.815H6.229H14.5616H14.7688L14.9153 31.6684L28.1457 18.4299V31.3621V31.8628L28.6464 31.8621L46.4901 31.8386Z" fill="#FF7A5C" stroke="#282826"/>
	<path d="M14.4509 63.002L14.4557 64.2021L15.3044 63.3536L43.8261 34.8383L44.6799 33.9847H43.4726H3H1.7927L2.64649 34.8383L8.53941 40.7299L8.68585 40.8763H8.89293H27.5676L14.5621 53.8678L14.4147 54.0151L14.4155 54.2235L14.4509 63.002Z" fill="#FF7A5C" stroke="#282826"/>
</svg>