<svg width="50" height="50" viewBox="0 0 50 50" fill="none" xmlns="http://www.w3.org/2000/svg">
<rect width="50" height="50" rx="15" fill="url(#paint0_linear_1_1177)"/>
<path d="M19.873 15.2402V17.5352H10.127V15.2402H19.873ZM16.2402 11.3242V21.6758H13.7695V11.3242H16.2402Z" fill="#D9DBDE"/>
<path d="M37.6709 15.4795V17.5205H32.3291V15.4795H37.6709Z" fill="#D9DBDE"/>
<path d="M13.1006 28.2168L14.9854 31.5762L16.8994 28.2168H19.7021L16.5967 33.3926L19.8291 38.7832H17.0264L15.0049 35.2578L12.9736 38.7832H10.1709L13.3936 33.3926L10.3076 28.2168H13.1006Z" fill="#D9DBDE"/>
<path d="M39.9902 32.4258V34.5254H30.0098V32.4258H39.9902ZM33.5352 29.5352C33.5352 29.1445 33.6686 28.8223 33.9355 28.5684C34.209 28.3079 34.5736 28.1777 35.0293 28.1777C35.485 28.1777 35.8464 28.3079 36.1133 28.5684C36.3802 28.8223 36.5137 29.1445 36.5137 29.5352C36.5137 29.9258 36.3802 30.248 36.1133 30.502C35.8464 30.7559 35.485 30.8828 35.0293 30.8828C34.5736 30.8828 34.209 30.7559 33.9355 30.502C33.6686 30.248 33.5352 29.9258 33.5352 29.5352ZM33.5352 37.4746C33.5352 37.084 33.6686 36.7585 33.9355 36.498C34.209 36.2376 34.5736 36.1074 35.0293 36.1074C35.485 36.1074 35.8464 36.2376 36.1133 36.498C36.3802 36.7585 36.5137 37.084 36.5137 37.4746C36.5137 37.8587 36.3802 38.181 36.1133 38.4414C35.8464 38.6953 35.485 38.8223 35.0293 38.8223C34.5736 38.8223 34.209 38.6953 33.9355 38.4414C33.6686 38.181 33.5352 37.8587 33.5352 37.4746Z" fill="#D9DBDE"/>
<defs>
<linearGradient id="paint0_linear_1_1177" x1="25" y1="0" x2="25" y2="50" gradientUnits="userSpaceOnUse">
<stop stop-color="#202225"/>
<stop offset="0.0001" stop-color="#202225"/>
<stop offset="1" stop-color="#0F0F0F"/>
</linearGradient>
</defs>
</svg>
