<svg width="50" height="50" viewBox="0 0 50 50" fill="none" xmlns="http://www.w3.org/2000/svg">
<rect width="50" height="50" rx="15" fill="url(#paint0_linear_1_1205)"/>
<path d="M21.65 43L20.85 37.3C20.1167 37.0667 19.3083 36.7 18.425 36.2C17.5417 35.7 16.8 35.1667 16.2 34.6L10.9 37L7.6 31.1L12.3 27.6C12.2333 27.2 12.175 26.775 12.125 26.325C12.075 25.875 12.05 25.45 12.05 25.05C12.05 24.65 12.075 24.2333 12.125 23.8C12.175 23.3667 12.2333 22.9 12.3 22.4L7.6 18.9L10.9 13.05L16.15 15.4C16.85 14.8333 17.6167 14.3083 18.45 13.825C19.2833 13.3417 20.0667 12.9833 20.8 12.75L21.65 7H28.35L29.15 12.75C29.9833 13.0833 30.775 13.4583 31.525 13.875C32.275 14.2917 33 14.8 33.7 15.4L39.1 13.05L42.4 18.9L37.55 22.45C37.6833 22.9167 37.7667 23.3583 37.8 23.775C37.8333 24.1917 37.85 24.6 37.85 25C37.85 25.3667 37.825 25.7583 37.775 26.175C37.725 26.5917 37.65 27.05 37.55 27.55L42.4 31.1L39.05 37L33.7 34.6C32.9667 35.2 32.225 35.7333 31.475 36.2C30.725 36.6667 29.95 37.0167 29.15 37.25L28.35 43H21.65ZM24.9 29.75C26.2333 29.75 27.3583 29.2917 28.275 28.375C29.1917 27.4583 29.65 26.3333 29.65 25C29.65 23.6667 29.1917 22.5417 28.275 21.625C27.3583 20.7083 26.2333 20.25 24.9 20.25C23.5667 20.25 22.4333 20.7083 21.5 21.625C20.5667 22.5417 20.1 23.6667 20.1 25C20.1 26.3333 20.5667 27.4583 21.5 28.375C22.4333 29.2917 23.5667 29.75 24.9 29.75Z" fill="#D9DBDE"/>
<defs>
<linearGradient id="paint0_linear_1_1205" x1="25" y1="0" x2="25" y2="50" gradientUnits="userSpaceOnUse">
<stop stop-color="#202225"/>
<stop offset="0.0001" stop-color="#202225"/>
<stop offset="1" stop-color="#0F0F0F"/>
</linearGradient>
</defs>
</svg>
