<svg width="50" height="50" viewBox="0 0 50 50" fill="none" xmlns="http://www.w3.org/2000/svg">
<rect width="50" height="50" rx="15" fill="url(#paint0_linear_1_1188)"/>
<path d="M10.0439 15.1074V14.9023C10.0439 14.1276 10.1546 13.4147 10.376 12.7637C10.5973 12.1061 10.9196 11.5365 11.3428 11.0547C11.766 10.5729 12.2835 10.1986 12.8955 9.93164C13.5075 9.6582 14.2041 9.52148 14.9854 9.52148C15.7796 9.52148 16.4827 9.6582 17.0947 9.93164C17.7132 10.1986 18.234 10.5729 18.6572 11.0547C19.0804 11.5365 19.4027 12.1061 19.624 12.7637C19.8454 13.4147 19.9561 14.1276 19.9561 14.9023V15.1074C19.9561 15.8757 19.8454 16.5885 19.624 17.2461C19.4027 17.8971 19.0804 18.4668 18.6572 18.9551C18.234 19.4368 17.7165 19.8112 17.1045 20.0781C16.4925 20.3451 15.7926 20.4785 15.0049 20.4785C14.2236 20.4785 13.5238 20.3451 12.9053 20.0781C12.2868 19.8112 11.766 19.4368 11.3428 18.9551C10.9196 18.4668 10.5973 17.8971 10.376 17.2461C10.1546 16.5885 10.0439 15.8757 10.0439 15.1074ZM12.6221 14.9023V15.1074C12.6221 15.5697 12.6676 16.0026 12.7588 16.4062C12.8499 16.8099 12.9899 17.1647 13.1787 17.4707C13.3675 17.7767 13.6117 18.0176 13.9111 18.1934C14.2171 18.3626 14.5817 18.4473 15.0049 18.4473C15.4215 18.4473 15.7796 18.3626 16.0791 18.1934C16.3786 18.0176 16.6227 17.7767 16.8115 17.4707C17.0068 17.1647 17.1501 16.8099 17.2412 16.4062C17.3324 16.0026 17.3779 15.5697 17.3779 15.1074V14.9023C17.3779 14.4466 17.3324 14.0202 17.2412 13.623C17.1501 13.2194 17.0068 12.8646 16.8115 12.5586C16.6227 12.2461 16.3753 12.002 16.0693 11.8262C15.7699 11.6439 15.4085 11.5527 14.9854 11.5527C14.5687 11.5527 14.2106 11.6439 13.9111 11.8262C13.6117 12.002 13.3675 12.2461 13.1787 12.5586C12.9899 12.8646 12.8499 13.2194 12.7588 13.623C12.6676 14.0202 12.6221 14.4466 12.6221 14.9023Z" fill="#D9DBDE"/>
<path d="M33.1006 9.7168L34.9854 13.0762L36.8994 9.7168H39.7021L36.5967 14.8926L39.8291 20.2832H37.0264L35.0049 16.7578L32.9736 20.2832H30.1709L33.3936 14.8926L30.3076 9.7168H33.1006Z" fill="#D9DBDE"/>
<path d="M13.1006 29.7168L14.9854 33.0762L16.8994 29.7168H19.7021L16.5967 34.8926L19.8291 40.2832H17.0264L15.0049 36.7578L12.9736 40.2832H10.1709L13.3936 34.8926L10.3076 29.7168H13.1006Z" fill="#D9DBDE"/>
<path d="M30.0439 35.1074V34.9023C30.0439 34.1276 30.1546 33.4147 30.376 32.7637C30.5973 32.1061 30.9196 31.5365 31.3428 31.0547C31.766 30.5729 32.2835 30.1986 32.8955 29.9316C33.5075 29.6582 34.2041 29.5215 34.9854 29.5215C35.7796 29.5215 36.4827 29.6582 37.0947 29.9316C37.7132 30.1986 38.234 30.5729 38.6572 31.0547C39.0804 31.5365 39.4027 32.1061 39.624 32.7637C39.8454 33.4147 39.9561 34.1276 39.9561 34.9023V35.1074C39.9561 35.8757 39.8454 36.5885 39.624 37.2461C39.4027 37.8971 39.0804 38.4668 38.6572 38.9551C38.234 39.4368 37.7165 39.8112 37.1045 40.0781C36.4925 40.3451 35.7926 40.4785 35.0049 40.4785C34.2236 40.4785 33.5238 40.3451 32.9053 40.0781C32.2868 39.8112 31.766 39.4368 31.3428 38.9551C30.9196 38.4668 30.5973 37.8971 30.376 37.2461C30.1546 36.5885 30.0439 35.8757 30.0439 35.1074ZM32.6221 34.9023V35.1074C32.6221 35.5697 32.6676 36.0026 32.7588 36.4062C32.8499 36.8099 32.9899 37.1647 33.1787 37.4707C33.3675 37.7767 33.6117 38.0176 33.9111 38.1934C34.2171 38.3626 34.5817 38.4473 35.0049 38.4473C35.4215 38.4473 35.7796 38.3626 36.0791 38.1934C36.3786 38.0176 36.6227 37.7767 36.8115 37.4707C37.0068 37.1647 37.1501 36.8099 37.2412 36.4062C37.3324 36.0026 37.3779 35.5697 37.3779 35.1074V34.9023C37.3779 34.4466 37.3324 34.0202 37.2412 33.623C37.1501 33.2194 37.0068 32.8646 36.8115 32.5586C36.6227 32.2461 36.3753 32.002 36.0693 31.8262C35.7699 31.6439 35.4085 31.5527 34.9854 31.5527C34.5687 31.5527 34.2106 31.6439 33.9111 31.8262C33.6117 32.002 33.3675 32.2461 33.1787 32.5586C32.9899 32.8646 32.8499 33.2194 32.7588 33.623C32.6676 34.0202 32.6221 34.4466 32.6221 34.9023Z" fill="#D9DBDE"/>
<line x1="25.5" y1="5.5" x2="25.5" y2="44.5" stroke="#D9DBDE" stroke-linecap="round"/>
<line x1="5.5" y1="24.5" x2="44.5" y2="24.5" stroke="#D9DBDE" stroke-linecap="round"/>
<defs>
<linearGradient id="paint0_linear_1_1188" x1="25" y1="0" x2="25" y2="50" gradientUnits="userSpaceOnUse">
<stop stop-color="#202225"/>
<stop offset="0.0001" stop-color="#202225"/>
<stop offset="1" stop-color="#0F0F0F"/>
</linearGradient>
</defs>
</svg>
